<?xml version="1.0" encoding="UTF-8"?>
<svg version="1.1" xmlns="http://www.w3.org/2000/svg" width="256" height="256">
<path d="M0 0 C84.48 0 168.96 0 256 0 C256 84.48 256 168.96 256 256 C171.52 256 87.04 256 0 256 C0 171.52 0 87.04 0 0 Z " fill="#FDFDFD" transform="translate(0,0)"/>
<path d="M0 0 C0.66 0 1.32 0 2 0 C2.0501123 0.61294922 2.10022461 1.22589844 2.15185547 1.85742188 C3.17610123 14.27843402 4.3150334 26.64955333 6 39 C6.99 39.33 7.98 39.66 9 40 C8.34 40 7.68 40 7 40 C7.22816406 40.68707031 7.45632812 41.37414062 7.69140625 42.08203125 C7.97886719 42.98308594 8.26632813 43.88414062 8.5625 44.8125 C8.85253906 45.70582031 9.14257812 46.59914062 9.44140625 47.51953125 C10 50 10 50 9 53 C5.88303339 48.66335081 5.44033187 45.19591612 5 40 C2.03 40 -0.94 40 -4 40 C-4.20625 41.2375 -4.4125 42.475 -4.625 43.75 C-6.46255023 51.97336307 -9.84284926 60.20259414 -17 65 C-20.48717946 65.64577397 -22.73450249 65.72693149 -25.86328125 63.9296875 C-31.31218434 59.65924097 -34.46690674 54.53174282 -35.5 47.6875 C-35 45 -35 45 -33.234375 43.40234375 C-25.45483411 38.5197298 -13.93268851 39.42114412 -5 39 C-4.8659375 37.88238281 -4.731875 36.76476562 -4.59375 35.61328125 C-3.99115934 30.78937326 -3.24442951 25.99115988 -2.5 21.1875 C-1.4220266 14.139462 -0.47352082 7.11914057 0 0 Z " fill="#F4F4F4" transform="translate(101,98)"/>
<path d="M0 0 C5.28 0 10.56 0 16 0 C16 1.65 16 3.3 16 5 C19.96 5 23.92 5 28 5 C28 6.98 28 8.96 28 11 C16.45 11 4.9 11 -7 11 C-7 31.13 -7 51.26 -7 72 C-0.4 72 6.2 72 13 72 C13 73.98 13 75.96 13 78 C4.75 78 -3.5 78 -12 78 C-12 53.91 -12 29.82 -12 5 C-8.04 5 -4.08 5 0 5 C0 3.35 0 1.7 0 0 Z " fill="#0B0B0B" transform="translate(22,78)"/>
<path d="M0 0 C0.5625 2.625 0.5625 2.625 0 6 C-2.0612756 7.70398783 -4.26297026 8.99698426 -6.546875 10.38671875 C-14.08695141 15.34539957 -17.93536691 22.34584933 -20 31 C-21.21135168 40.50681065 -18.44326834 49.2177145 -13 57 C-10.87815895 59.38640976 -8.64787456 61.22214137 -6 63 C-5.08347656 63.62068359 -5.08347656 63.62068359 -4.1484375 64.25390625 C0.96197198 67.08534934 5.90426345 67.37964017 11.625 67.4375 C12.34155762 67.44765137 13.05811523 67.45780273 13.79638672 67.46826172 C21.3497172 67.34460793 26.92735134 64.48847945 33 60 C34.2065625 58.63875 34.2065625 58.63875 35.4375 57.25 C38 55 38 55 41.8125 54.6875 C43.3903125 54.8421875 43.3903125 54.8421875 45 55 C40.01572701 63.91922535 33.16222429 70.57230388 23.07104492 73.57373047 C11.7807595 75.89753553 0.31051644 74.61842773 -9.38671875 68.4921875 C-16.90610636 63.14782937 -23.2875992 54.86166238 -25.5546875 45.77734375 C-27.41296853 34.18753839 -25.95024104 24.94697561 -20.1875 14.8125 C-15.61927526 8.93906819 -8.16115982 0 0 0 Z " fill="#0E0E0E" transform="translate(66,110)"/>
<path d="M0 0 C0.66 0 1.32 0 2 0 C2.91839638 4.7521293 3.20661314 9.41612054 3.31640625 14.2421875 C3.33718735 15.01055939 3.35796844 15.77893127 3.37937927 16.57058716 C3.44433469 19.00530767 3.50350638 21.44012847 3.5625 23.875 C3.6057367 25.5338642 3.64935257 27.19271856 3.69335938 28.8515625 C3.79996003 32.90094104 3.9013767 36.95041963 4 41 C4.57137695 40.30185181 4.57137695 40.30185181 5.15429688 39.58959961 C9.8920857 33.91209019 14.87390748 28.43432553 22.5625 27.625 C23.366875 27.74875 24.17125 27.8725 25 28 C25 28.66 25 29.32 25 30 C23.35 30.33 21.7 30.66 20 31 C20 31.99 20 32.98 20 34 C24.54743076 32.7873518 26.26756746 31.72604437 29 28 C33.33333333 28 37.66666667 28 42 28 C41.505 29.485 41.505 29.485 41 31 C42.65 30.67 44.3 30.34 46 30 C46 31.65 46 33.3 46 35 C46.66 35 47.32 35 48 35 C48 36.98 48 38.96 48 41 C44.08910502 42.30363166 42.65129353 41.21021213 39.03515625 39.59375 C36.58311316 38.87837466 35.40523129 39.22975894 33 40 C27.53909619 40.96887003 24.23497098 41.22486266 19 39 C18.59007812 39.5053125 18.18015625 40.010625 17.7578125 40.53125 C17.21898437 41.1809375 16.68015625 41.830625 16.125 42.5 C15.32449219 43.47453125 15.32449219 43.47453125 14.5078125 44.46875 C14.01023438 44.9740625 13.51265625 45.479375 13 46 C12.34 46 11.68 46 11 46 C10.690625 46.94875 10.38125 47.8975 10.0625 48.875 C9 52 9 52 8 54 C6.68 54 5.36 54 4 54 C4 52.02 4 50.04 4 48 C2.02 48.495 2.02 48.495 0 49 C0 32.83 0 16.66 0 0 Z " fill="#E6E6E6" transform="translate(179,107)"/>
<path d="M0 0 C0.66 0 1.32 0 2 0 C2.0501123 0.61294922 2.10022461 1.22589844 2.15185547 1.85742188 C3.17610123 14.27843402 4.3150334 26.64955333 6 39 C6.99 39.33 7.98 39.66 9 40 C8.34 40 7.68 40 7 40 C7.22816406 40.68707031 7.45632812 41.37414062 7.69140625 42.08203125 C7.97886719 42.98308594 8.26632813 43.88414062 8.5625 44.8125 C8.85253906 45.70582031 9.14257812 46.59914062 9.44140625 47.51953125 C10 50 10 50 9 53 C5.88303339 48.66335081 5.44033187 45.19591612 5 40 C2.03 40 -0.94 40 -4 40 C-4.20625 41.2375 -4.4125 42.475 -4.625 43.75 C-6.46255023 51.97336307 -9.84284926 60.20259414 -17 65 C-20.48717946 65.64577397 -22.73450249 65.72693149 -25.86328125 63.9296875 C-31.31218434 59.65924097 -34.46690674 54.53174282 -35.5 47.6875 C-35 45 -35 45 -33.234375 43.40234375 C-25.45483411 38.5197298 -13.93268851 39.42114412 -5 39 C-4.8659375 37.88238281 -4.731875 36.76476562 -4.59375 35.61328125 C-3.99115934 30.78937326 -3.24442951 25.99115988 -2.5 21.1875 C-1.4220266 14.139462 -0.47352082 7.11914057 0 0 Z M-22.3125 41.8125 C-23.3653418 41.91788086 -23.3653418 41.91788086 -24.43945312 42.02539062 C-27.33605488 42.37055289 -29.55712333 42.69103663 -31.9765625 44.37890625 C-33.38521636 46.61017096 -33.19636361 48.41958388 -32.71484375 50.95703125 C-30.86971043 56.23028113 -27.62743877 60.91504082 -23 64 C-19.92823949 64.06826134 -17.90895453 63.71155532 -15.453125 61.7890625 C-10.4406431 56.49236771 -6 48.37633187 -6 41 C-11.51093391 40.91959356 -16.84187314 41.15643804 -22.3125 41.8125 Z " fill="#2B2B2B" transform="translate(101,98)"/>
<path d="M0 0 C2.125 0.375 2.125 0.375 4 1 C4 2.65 4 4.3 4 6 C3.34 4.68 2.68 3.36 2 2 C0.01411879 7.70940849 -0.47474133 12.96084865 0 19 C0.33 19.66 0.66 20.32 1 21 C4.11332248 20.33131686 4.11332248 20.33131686 5.1875 17.9375 C5.455625 17.298125 5.72375 16.65875 6 16 C6.33 16 6.66 16 7 16 C7 17.65 7 19.3 7 21 C9.7839183 19.60804085 9.97898997 17.84424221 11 15 C11.66 15.33 12.32 15.66 13 16 C13 17.65 13 19.3 13 21 C15.2236068 19.0745356 15.2236068 19.0745356 16 16 C16.66 16 17.32 16 18 16 C18 16.66 18 17.32 18 18 C18.66 18 19.32 18 20 18 C20.33 19.32 20.66 20.64 21 22 C21.66 20.02 22.32 18.04 23 16 C23.66 16 24.32 16 25 16 C25 17.65 25 19.3 25 21 C25.680625 20.195625 26.36125 19.39125 27.0625 18.5625 C30.48477302 15.57711289 32.5428126 15.26218749 37 15 C37.495 17.475 37.495 17.475 38 20 C38.53625 19.319375 39.0725 18.63875 39.625 17.9375 C42 16 42 16 45.25 16.25 C46.1575 16.4975 47.065 16.745 48 17 C48 17.99 48 18.98 48 20 C49.32 19.34 50.64 18.68 52 18 C51.505 19.485 51.505 19.485 51 21 C48.9375 21.6875 48.9375 21.6875 47 22 C46.98582031 22.58007812 46.97164062 23.16015625 46.95703125 23.7578125 C46.70721005 27.84947862 46.36864771 31.14788341 43.875 34.5 C40.49768828 37.4367928 38.41153398 37.82699867 34 38 C33.29296875 35.765625 33.29296875 35.765625 33 33 C34.36328125 30.796875 34.36328125 30.796875 36.3125 28.75 C36.94800781 28.06421875 37.58351562 27.3784375 38.23828125 26.671875 C40 25 40 25 42 24 C39.69 23.67 37.38 23.34 35 23 C34.67 21.35 34.34 19.7 34 18 C33.34 19.65 32.68 21.3 32 23 C31.34 23 30.68 23 30 23 C29.505 22.01 29.505 22.01 29 21 C28.34 21.66 27.68 22.32 27 23 C24.8359375 23.4140625 24.8359375 23.4140625 22.375 23.625 C21.55773437 23.69976562 20.74046875 23.77453125 19.8984375 23.8515625 C19.27195313 23.90054688 18.64546875 23.94953125 18 24 C17.67 23.01 17.34 22.02 17 21 C16.34 21.66 15.68 22.32 15 23 C12.29730234 23.08579993 9.69246104 23.09596891 7 23 C6.01 23 5.02 23 4 23 C1.43549931 22.56215842 -0.66896407 22.16551796 -3 21 C-2.89037184 17.8742604 -2.75968759 14.74975219 -2.625 11.625 C-2.5940625 10.73554688 -2.563125 9.84609375 -2.53125 8.9296875 C-2.49257812 8.07890625 -2.45390625 7.228125 -2.4140625 6.3515625 C-2.3826416 5.56604004 -2.3512207 4.78051758 -2.31884766 3.97119141 C-2 2 -2 2 0 0 Z " fill="#2D2D2D" transform="translate(122,119)"/>
<path d="M0 0 C5.82071622 -0.02464638 11.64140234 -0.0428343 17.4621582 -0.05493164 C19.44393441 -0.05997267 21.42570689 -0.06680538 23.4074707 -0.07543945 C26.24952109 -0.08751515 29.09152247 -0.09323045 31.93359375 -0.09765625 C32.82525742 -0.10281754 33.71692108 -0.10797882 34.63560486 -0.11329651 C36.75740601 -0.11349177 38.8791078 -0.0621003 41 0 C42 1 42 1 42.11352539 2.85766602 C42.10828857 3.64842529 42.10305176 4.43918457 42.09765625 5.25390625 C42.09443359 6.10791016 42.09121094 6.96191406 42.08789062 7.84179688 C42.07532227 9.18854492 42.07532227 9.18854492 42.0625 10.5625 C42.05798828 11.46419922 42.05347656 12.36589844 42.04882812 13.29492188 C42.03700225 15.53001314 42.0205222 17.76497437 42 20 C39.69 20 37.38 20 35 20 C35 15.38 35 10.76 35 6 C23.45 6 11.9 6 0 6 C0 4.02 0 2.04 0 0 Z " fill="#1D1D1D" transform="translate(105,83)"/>
<path d="M0 0 C2.97 0 5.94 0 9 0 C9.495 2.475 9.495 2.475 10 5 C9.39285156 5.19980469 8.78570312 5.39960938 8.16015625 5.60546875 C5.05111898 7.61256876 4.62410936 9.85449318 3.4375 13.3125 C2.27117637 16.66615845 1.21930393 19.64589933 -0.65234375 22.66796875 C-2.33356672 25.12831102 -2.33356672 25.12831102 -2 29 C-3.64453125 30.44921875 -3.64453125 30.44921875 -5.8125 31.6875 C-6.52019531 32.10386719 -7.22789063 32.52023438 -7.95703125 32.94921875 C-11.50680055 34.77500831 -14.25670376 35.1135493 -18.1875 35.0625 C-19.08855469 35.05347656 -19.98960938 35.04445312 -20.91796875 35.03515625 C-21.60503906 35.02355469 -22.29210937 35.01195312 -23 35 C-23 34.67 -23 34.34 -23 34 C-19.7 33.34 -16.4 32.68 -13 32 C-13.99 31.34 -14.98 30.68 -16 30 C-16.99 29.34 -17.98 28.68 -19 28 C-19 27.01 -19 26.02 -19 25 C-17.80375 24.855625 -16.6075 24.71125 -15.375 24.5625 C-10.62471055 23.33094348 -8.84666025 20.98115593 -6.38671875 16.86328125 C-3.75167312 11.42246873 -1.84759079 5.7471519 0 0 Z " fill="#E9E9E9" transform="translate(97,138)"/>
<path d="M0 0 C1.94824219 0.68701172 1.94824219 0.68701172 4 2 C4.63769531 4.24658203 4.63769531 4.24658203 4.828125 7.0078125 C4.90546875 7.99394531 4.9828125 8.98007813 5.0625 9.99609375 C5.124375 11.02863281 5.18625 12.06117187 5.25 13.125 C5.32734375 14.16527344 5.4046875 15.20554687 5.484375 16.27734375 C5.67325592 18.85084633 5.8443576 21.42430816 6 24 C6.309375 22.72125 6.61875 21.4425 6.9375 20.125 C7.47605244 17.89898325 7.9737 16.05260001 9 14 C10.32 14.33 11.64 14.66 13 15 C13.51794895 24.53409727 13.51794895 24.53409727 11.5 28.75 C9.92610498 32.16010589 9.72916996 34.29865607 10 38 C11.32 38 12.64 38 14 38 C13.67 38.99 13.34 39.98 13 41 C11.35 41 9.7 41 8 41 C7.67 43.97 7.34 46.94 7 50 C6.01 50 5.02 50 4 50 C4.18175781 49.443125 4.36351563 48.88625 4.55078125 48.3125 C5.07950597 45.59071709 4.76068836 43.70511915 4.1875 41 C4.01605469 40.154375 3.84460938 39.30875 3.66796875 38.4375 C3.09394688 36.02102386 3.09394688 36.02102386 2 34.03515625 C-2.96795431 23.92459299 -0.84412291 10.80249183 0 0 Z " fill="#E5E5E5" transform="translate(105,102)"/>
<path d="M0 0 C10.56 0 21.12 0 32 0 C32 3.3 32 6.6 32 10 C21.44 10 10.88 10 0 10 C0 6.7 0 3.4 0 0 Z " fill="#080808" transform="translate(62,71)"/>
<path d="M0 0 C0.66 0 1.32 0 2 0 C2.91839638 4.7521293 3.20661314 9.41612054 3.31640625 14.2421875 C3.33718735 15.01055939 3.35796844 15.77893127 3.37937927 16.57058716 C3.44433469 19.00530767 3.50350638 21.44012847 3.5625 23.875 C3.6057367 25.5338642 3.64935257 27.19271856 3.69335938 28.8515625 C3.79996003 32.90094104 3.9013767 36.95041963 4 41 C4.57137695 40.30185181 4.57137695 40.30185181 5.15429688 39.58959961 C9.8920857 33.91209019 14.87390748 28.43432553 22.5625 27.625 C23.366875 27.74875 24.17125 27.8725 25 28 C25 28.66 25 29.32 25 30 C23.35 30.33 21.7 30.66 20 31 C20 31.99 20 32.98 20 34 C24.54743076 32.7873518 26.26756746 31.72604437 29 28 C33.33333333 28 37.66666667 28 42 28 C41.505 29.485 41.505 29.485 41 31 C42.65 30.67 44.3 30.34 46 30 C46 30.66 46 31.32 46 32 C45.01 32 44.02 32 43 32 C43 33.32 43 34.64 43 36 C37.5388601 35.64766839 37.5388601 35.64766839 35 35 C33.5 32.9375 33.5 32.9375 33 31 C32.34 32.32 31.68 33.64 31 35 C30.34 35 29.68 35 29 35 C28.67 34.34 28.34 33.68 28 33 C27.01 33.66 26.02 34.32 25 35 C21.8125 35.125 21.8125 35.125 19 35 C18.67 34.01 18.34 33.02 18 32 C11.44386554 35.67783153 7.64495072 41.18604637 3.41796875 47.28125 C2.95003906 47.8484375 2.48210937 48.415625 2 49 C1.34 49 0.68 49 0 49 C0 32.83 0 16.66 0 0 Z " fill="#303030" transform="translate(179,107)"/>
<path d="M0 0 C2.125 0.375 2.125 0.375 4 1 C4 2.65 4 4.3 4 6 C3.34 4.68 2.68 3.36 2 2 C0.01411879 7.70940849 -0.47474133 12.96084865 0 19 C0.33 19.66 0.66 20.32 1 21 C4.11332248 20.33131686 4.11332248 20.33131686 5.1875 17.9375 C5.455625 17.298125 5.72375 16.65875 6 16 C6.33 16 6.66 16 7 16 C7 17.65 7 19.3 7 21 C9.7839183 19.60804085 9.97898997 17.84424221 11 15 C11.66 15.33 12.32 15.66 13 16 C13 17.65 13 19.3 13 21 C15.2236068 19.0745356 15.2236068 19.0745356 16 16 C16.66 16 17.32 16 18 16 C18 16.66 18 17.32 18 18 C18.66 18 19.32 18 20 18 C20.33 19.32 20.66 20.64 21 22 C21.66 20.02 22.32 18.04 23 16 C23.66 16 24.32 16 25 16 C25 17.65 25 19.3 25 21 C25.680625 20.195625 26.36125 19.39125 27.0625 18.5625 C30.48477302 15.57711289 32.5428126 15.26218749 37 15 C37.495 18.96 37.495 18.96 38 23 C37.01 23 36.02 23 35 23 C34.67 21.35 34.34 19.7 34 18 C33.34 19.65 32.68 21.3 32 23 C31.34 23 30.68 23 30 23 C29.505 22.01 29.505 22.01 29 21 C28.34 21.66 27.68 22.32 27 23 C24.8359375 23.4140625 24.8359375 23.4140625 22.375 23.625 C21.55773437 23.69976562 20.74046875 23.77453125 19.8984375 23.8515625 C19.27195313 23.90054688 18.64546875 23.94953125 18 24 C17.67 23.01 17.34 22.02 17 21 C16.34 21.66 15.68 22.32 15 23 C12.29730234 23.08579993 9.69246104 23.09596891 7 23 C6.01 23 5.02 23 4 23 C1.43549931 22.56215842 -0.66896407 22.16551796 -3 21 C-2.89037184 17.8742604 -2.75968759 14.74975219 -2.625 11.625 C-2.5940625 10.73554688 -2.563125 9.84609375 -2.53125 8.9296875 C-2.49257812 8.07890625 -2.45390625 7.228125 -2.4140625 6.3515625 C-2.3826416 5.56604004 -2.3512207 4.78051758 -2.31884766 3.97119141 C-2 2 -2 2 0 0 Z " fill="#282828" transform="translate(122,119)"/>
<path d="M0 0 C0.66 0 1.32 0 2 0 C3 8 4 16 5 24 C4.34 23.34 3.68 22.68 3 22 C3 20.68 3 19.36 3 18 C1.68 18 0.36 18 -1 18 C-1.268125 19.0725 -1.53625 20.145 -1.8125 21.25 C-2.86227827 24.56508928 -3.74612328 26.43877646 -6 29 C-8.25 28.875 -8.25 28.875 -11 28 C-13.3125 24.9375 -13.3125 24.9375 -15 22 C-13.25 18.125 -13.25 18.125 -11 17 C-7.99525503 16.86440682 -5.00931153 16.95700984 -2 17 C-1.34 11.39 -0.68 5.78 0 0 Z " fill="#E3E3E3" transform="translate(232,151)"/>
<path d="M0 0 C0.165 0.61875 0.33 1.2375 0.5 1.875 C2.90181375 5.27756949 6.00162134 5.22612026 10 6 C10 4.68 10 3.36 10 2 C10.99 2.33 11.98 2.66 13 3 C13 3.66 13 4.32 13 5 C13.66 5 14.32 5 15 5 C15 6.98 15 8.96 15 11 C11.08910502 12.30363166 9.65129353 11.21021213 6.03515625 9.59375 C3.57976403 8.87739757 2.40928036 9.22827738 0 10 C-7.23761895 11.50031257 -7.23761895 11.50031257 -10 9.6875 C-11 8 -11 8 -11 6 C-11.66 5.67 -12.32 5.34 -13 5 C-11.88625 4.690625 -10.7725 4.38125 -9.625 4.0625 C-6.2054845 3.17673517 -6.2054845 3.17673517 -4 2 C-4 2.99 -4 3.98 -4 5 C-3.34 5 -2.68 5 -2 5 C-1.34 3.35 -0.68 1.7 0 0 Z " fill="#E6E6E6" transform="translate(212,137)"/>
<path d="M0 0 C2.01822917 0.06510417 4.03645833 0.13020833 6.0546875 0.1953125 C6.0546875 1.5153125 6.0546875 2.8353125 6.0546875 4.1953125 C5.0646875 4.1953125 4.0746875 4.1953125 3.0546875 4.1953125 C3.7146875 3.2053125 4.3746875 2.2153125 5.0546875 1.1953125 C3.4046875 1.5253125 1.7546875 1.8553125 0.0546875 2.1953125 C-0.2753125 4.5053125 -0.6053125 6.8153125 -0.9453125 9.1953125 C-0.0171875 9.1540625 0.9109375 9.1128125 1.8671875 9.0703125 C5.0546875 9.1953125 5.0546875 9.1953125 8.0546875 11.1953125 C8.2421875 14.3203125 8.2421875 14.3203125 8.0546875 17.1953125 C9.0446875 17.1953125 10.0346875 17.1953125 11.0546875 17.1953125 C11.0546875 16.5353125 11.0546875 15.8753125 11.0546875 15.1953125 C10.3946875 15.1953125 9.7346875 15.1953125 9.0546875 15.1953125 C9.3846875 14.5353125 9.7146875 13.8753125 10.0546875 13.1953125 C11.0446875 13.1953125 12.0346875 13.1953125 13.0546875 13.1953125 C12.7246875 16.4953125 12.3946875 19.7953125 12.0546875 23.1953125 C10.7346875 22.8653125 9.4146875 22.5353125 8.0546875 22.1953125 C7.7246875 21.5353125 7.3946875 20.8753125 7.0546875 20.1953125 C6.3946875 20.1953125 5.7346875 20.1953125 5.0546875 20.1953125 C5.3846875 18.5453125 5.7146875 16.8953125 6.0546875 15.1953125 C0.47358423 16.96266187 -2.64432598 18.10629162 -5.9453125 23.1953125 C-5.31098414 18.50128265 -5.31098414 18.50128265 -3.4140625 16.9140625 C-1.23147782 14.35997404 -1.65163751 12.29923733 -1.7578125 9.0078125 C-1.78488281 7.92113281 -1.81195313 6.83445313 -1.83984375 5.71484375 C-1.87464844 4.88339844 -1.90945312 4.05195313 -1.9453125 3.1953125 C-2.6053125 2.8653125 -3.2653125 2.5353125 -3.9453125 2.1953125 C-1.9453125 0.1953125 -1.9453125 0.1953125 0 0 Z " fill="#D1D1D1" transform="translate(200.9453125,154.8046875)"/>
<path d="M0 0 C0.7734375 -0.00515625 1.546875 -0.0103125 2.34375 -0.015625 C4.5 0.25 4.5 0.25 7.5 2.25 C7.72107787 5.0385289 7.78107535 7.59653181 7.6875 10.375 C7.66719727 11.50615234 7.66719727 11.50615234 7.64648438 12.66015625 C7.61109985 14.52374127 7.55729167 16.38695978 7.5 18.25 C0.875 18.375 0.875 18.375 -2.5 17.25 C-2.5 19.56 -2.5 21.87 -2.5 24.25 C-2.83 24.25 -3.16 24.25 -3.5 24.25 C-4.27313045 18.3385256 -4.64819277 13.1185408 -3.5 7.25 C-3.17 7.25 -2.84 7.25 -2.5 7.25 C-2.17 8.9 -1.84 10.55 -1.5 12.25 C1.56057006 10.65521237 1.56057006 10.65521237 4.5 8.25 C5.4688059 5.11734521 5.4688059 5.11734521 5.5 2.25 C0.26109914 1.93566595 -3.02833673 2.44221144 -7.5 5.25 C-8.49 6.735 -8.49 6.735 -9.5 8.25 C-10.16 7.92 -10.82 7.59 -11.5 7.25 C-8.0827319 2.77220042 -5.84966714 -0.03899778 0 0 Z " fill="#C1C1C1" transform="translate(248.5,154.75)"/>
<path d="M0 0 C0.33 0 0.66 0 1 0 C1 1.98 1 3.96 1 6 C3.64 6 6.28 6 9 6 C4.25 10.875 4.25 10.875 2 12 C1.01 11.67 0.02 11.34 -1 11 C-2.89952346 11.08521741 -4.79663573 11.23729084 -6.6875 11.4375 C-7.68136719 11.53933594 -8.67523438 11.64117187 -9.69921875 11.74609375 C-10.83810547 11.87177734 -10.83810547 11.87177734 -12 12 C-12.33 11.01 -12.66 10.02 -13 9 C-13.99 8.34 -14.98 7.68 -16 7 C-12.68461603 5.86975547 -9.39617212 4.84904303 -6 4 C-5.34 3.67 -4.68 3.34 -4 3 C-4 3.99 -4 4.98 -4 6 C-3.34 6 -2.68 6 -2 6 C-1.855625 5.195625 -1.71125 4.39125 -1.5625 3.5625 C-1 1 -1 1 0 0 Z " fill="#E3E3E3" transform="translate(156,136)"/>
<path d="M0 0 C1.32 0.33 2.64 0.66 4 1 C4.51794895 10.53409727 4.51794895 10.53409727 2.5 14.75 C0.92610498 18.16010589 0.72916996 20.29865607 1 24 C2.32 24 3.64 24 5 24 C4.67 24.99 4.34 25.98 4 27 C1.5625 26.625 1.5625 26.625 -1 26 C-2.81226714 22.37546571 -2.18470181 18.11521368 -2.1875 14.125 C-2.19974609 13.21363281 -2.21199219 12.30226562 -2.22460938 11.36328125 C-2.22654297 10.48285156 -2.22847656 9.60242188 -2.23046875 8.6953125 C-2.23457764 7.89109863 -2.23868652 7.08688477 -2.24291992 6.25830078 C-1.97590333 3.77598569 -1.24066762 2.14819586 0 0 Z " fill="#353535" transform="translate(114,116)"/>
<path d="M0 0 C0.99 0 1.98 0 3 0 C2.85065904 7.76572992 -0.36046996 13.83527013 -5 20 C-8.44603859 22.58857359 -9.41550905 23.04790909 -13.8125 22.6875 C-14.864375 22.460625 -15.91625 22.23375 -17 22 C-14 20 -14 20 -11.0859375 18.390625 C-7.14508607 15.33771225 -5.65178727 12.2136638 -3.625 7.75 C-3.27050781 7.00492188 -2.91601562 6.25984375 -2.55078125 5.4921875 C-1.685666 3.66843103 -0.84074114 1.83512026 0 0 Z " fill="#F4F4F4" transform="translate(96,143)"/>
<path d="M0 0 C0.33 1.32 0.66 2.64 1 4 C1.66 4 2.32 4 3 4 C3 14.23 3 24.46 3 35 C2.01 35 1.02 35 0 35 C-1.43143617 8.15676475 -1.43143617 8.15676475 -1 1 C-0.67 0.67 -0.34 0.34 0 0 Z " fill="#E9E9E9" transform="translate(184,110)"/>
<path d="M0 0 C0.66 0.33 1.32 0.66 2 1 C2.8515625 3.6171875 2.8515625 3.6171875 3.625 6.875 C3.88539062 7.94492188 4.14578125 9.01484375 4.4140625 10.1171875 C5.39979412 14.96698709 4.64703062 16.91916112 2 21 C1.01 20.67 0.02 20.34 -1 20 C-3.97240815 14.0551837 -1.79061977 6.04334172 0 0 Z " fill="#E7E7E7" transform="translate(123,120)"/>
<path d="M0 0 C2.625 1.4375 2.625 1.4375 5 3 C4.01 6.3 3.02 9.6 2 13 C1.01 13 0.02 13 -1 13 C-2.68496298 13.96885372 -4.35178756 14.96986723 -6 16 C-6.99 16.33 -7.98 16.66 -9 17 C-9.73323796 19.01508358 -9.73323796 19.01508358 -10 21 C-10.33 20.34 -10.66 19.68 -11 19 C-11.99 18.34 -12.98 17.68 -14 17 C-12.906875 16.5875 -11.81375 16.175 -10.6875 15.75 C-7.4203681 14.31404284 -5.64478102 13.28956204 -4 10 C-3.42184319 7.65020552 -2.93720373 5.31077602 -2.52734375 2.92578125 C-2.35332031 2.29027344 -2.17929688 1.65476563 -2 1 C-1.34 0.67 -0.68 0.34 0 0 Z " fill="#E8E8E8" transform="translate(171,140)"/>
<path d="M0 0 C0 0.66 0 1.32 0 2 C-1.35546875 3.19140625 -1.35546875 3.19140625 -3.1875 4.5625 C-8.12070193 8.71360894 -11.39635303 13.28280548 -12.4453125 19.7421875 C-12.71750039 26.29284269 -11.18142016 30.35554488 -8 36 C-8.33 36.66 -8.66 37.32 -9 38 C-14.26722504 32.20605246 -15.52080657 26.13503377 -15.30078125 18.48046875 C-14.36127524 10.73259453 -9.72957291 6.39763773 -4.0234375 1.46875 C-2 0 -2 0 0 0 Z " fill="#2B2B2B" transform="translate(66,123)"/>
<path d="M0 0 C2.125 0.375 2.125 0.375 4 1 C4 2.65 4 4.3 4 6 C3.34 4.68 2.68 3.36 2 2 C0.01411879 7.70940849 -0.47474133 12.96084865 0 19 C0.33 19.66 0.66 20.32 1 21 C4.11332248 20.33131686 4.11332248 20.33131686 5.1875 17.9375 C5.455625 17.298125 5.72375 16.65875 6 16 C6.33 16 6.66 16 7 16 C7 17.65 7 19.3 7 21 C9.7839183 19.60804085 9.97898997 17.84424221 11 15 C11.33 15 11.66 15 12 15 C12 17.31 12 19.62 12 22 C12.66 22.33 13.32 22.66 14 23 C1 23 1 23 -3 21 C-2.89037184 17.8742604 -2.75968759 14.74975219 -2.625 11.625 C-2.5940625 10.73554688 -2.563125 9.84609375 -2.53125 8.9296875 C-2.49257812 8.07890625 -2.45390625 7.228125 -2.4140625 6.3515625 C-2.3826416 5.56604004 -2.3512207 4.78051758 -2.31884766 3.97119141 C-2 2 -2 2 0 0 Z " fill="#2A2A2A" transform="translate(122,119)"/>
<path d="M0 0 C0.99 0.33 1.98 0.66 3 1 C3 1.66 3 2.32 3 3 C3.66 3 4.32 3 5 3 C5 4.98 5 6.96 5 9 C1.08910502 10.30363166 -0.34870647 9.21021213 -3.96484375 7.59375 C-6.37866949 6.88952445 -7.6229679 7.32510153 -10 8 C-10.66 7.67 -11.32 7.34 -12 7 C-12 6.34 -12 5.68 -12 5 C-9.525 5.495 -9.525 5.495 -7 6 C-6.67 5.01 -6.34 4.02 -6 3 C-3.03 3.495 -3.03 3.495 0 4 C0 2.68 0 1.36 0 0 Z " fill="#DDDDDD" transform="translate(222,139)"/>
<path d="M0 0 C0.33 0 0.66 0 1 0 C1.84942326 4.43738713 2.16329619 8.67106952 2.1875 13.1875 C2.20167969 14.39792969 2.21585937 15.60835937 2.23046875 16.85546875 C2 20 2 20 0 23 C-1.32 22.67 -2.64 22.34 -4 22 C-4.31991162 17.62787454 -3.60537613 14.88147526 -1.734375 10.9453125 C-0.40684152 7.42876105 -0.24502443 3.72606111 0 0 Z " fill="#C1C1C1" transform="translate(118,118)"/>
<path d="M0 0 C0.66 0 1.32 0 2 0 C3 8 4 16 5 24 C4.34 23.34 3.68 22.68 3 22 C3 20.68 3 19.36 3 18 C1.68 18 0.36 18 -1 18 C-1.28875 19.134375 -1.5775 20.26875 -1.875 21.4375 C-2.24625 22.613125 -2.6175 23.78875 -3 25 C-3.66 25.33 -4.32 25.66 -5 26 C-4.80664062 25.37996094 -4.61328125 24.75992188 -4.4140625 24.12109375 C-2.06513822 16.13242554 -0.94669182 8.25292512 0 0 Z " fill="#989898" transform="translate(232,151)"/>
<path d="M0 0 C2.0460668 3.06910021 2.50913306 4.80688201 3.125 8.375 C3.29257813 9.31085938 3.46015625 10.24671875 3.6328125 11.2109375 C3.97990588 13.84737023 4.06758274 16.34496388 4 19 C1.69 19 -0.62 19 -3 19 C-2.68926976 16.77058595 -2.37634375 14.54147788 -2.0625 12.3125 C-1.88847656 11.07113281 -1.71445313 9.82976562 -1.53515625 8.55078125 C-1.10177103 5.67525452 -0.60350718 2.84355187 0 0 Z " fill="#E2E2E2" transform="translate(101,118)"/>
<path d="M0 0 C1 2 1 2 0.25 5 C-1 8 -1 8 -4 10 C-6.33199388 10.07905064 -8.66832622 10.08798769 -11 10 C-10.875 7.75 -10.875 7.75 -10 5 C-6.85161133 2.48128906 -4.02436645 0.6191333 0 0 Z " fill="#EDEDED" transform="translate(207,169)"/>
<path d="M0 0 C3 3.36 3 3.36 3 5.9375 C1.50810771 9.01452784 -0.36399196 10.84326615 -3 13 C-5.8125 13.3125 -5.8125 13.3125 -8 13 C-8.3125 10.75 -8.3125 10.75 -8 8 C-5.6875 5.6875 -5.6875 5.6875 -3 4 C-2.01 4 -1.02 4 0 4 C0 2.68 0 1.36 0 0 Z " fill="#F0F0F0" transform="translate(170,149)"/>
<path d="M0 0 C0.33 0 0.66 0 1 0 C1.06058594 0.97582031 1.12117188 1.95164062 1.18359375 2.95703125 C1.26738281 4.22933594 1.35117188 5.50164062 1.4375 6.8125 C1.51871094 8.07707031 1.59992188 9.34164062 1.68359375 10.64453125 C1.87184547 13.99181893 1.87184547 13.99181893 3 17 C2.66015625 19.26171875 2.66015625 19.26171875 2.0625 21.6875 C1.86785156 22.49574219 1.67320313 23.30398437 1.47265625 24.13671875 C1.31667969 24.75160156 1.16070312 25.36648437 1 26 C0.01 26 -0.98 26 -2 26 C-1.81695312 25.44570312 -1.63390625 24.89140625 -1.4453125 24.3203125 C-0.91420307 21.55295285 -1.2768165 19.62008868 -1.875 16.875 C-2.05804688 16.00617188 -2.24109375 15.13734375 -2.4296875 14.2421875 C-2.91942326 11.98371083 -2.91942326 11.98371083 -4 10 C-2.68 10 -1.36 10 0 10 C0 6.7 0 3.4 0 0 Z " fill="#C2C2C2" transform="translate(111,126)"/>
<path d="M0 0 C2.43818936 3.65728405 2.6716692 6.93287895 3.125 11.1875 C3.21136719 11.93708984 3.29773438 12.68667969 3.38671875 13.45898438 C3.59838382 15.30517412 3.80015464 17.15249344 4 19 C4.99 19.33 5.98 19.66 7 20 C6.34 20 5.68 20 5 20 C5.22816406 20.68707031 5.45632812 21.37414062 5.69140625 22.08203125 C5.97886719 22.98308594 6.26632813 23.88414062 6.5625 24.8125 C6.85253906 25.70582031 7.14257812 26.59914062 7.44140625 27.51953125 C8 30 8 30 7 33 C3.96974449 28.64997704 2.89784192 24.41022192 1.8125 19.3125 C1.6381543 18.51537598 1.46380859 17.71825195 1.28417969 16.89697266 C0.09232735 11.16278678 -0.3784954 5.86667873 0 0 Z " fill="#212121" transform="translate(103,118)"/>
<path d="M0 0 C0.99 0 1.98 0 3 0 C2.01 0.495 2.01 0.495 1 1 C0.87625 1.639375 0.7525 2.27875 0.625 2.9375 C0 5 0 5 -1.8125 6.3125 C-5.07718369 7.33854345 -7.0252475 6.48737625 -10 5 C-10 2 -10 2 -8.9375 0.25 C-5.90239089 -1.70813491 -3.42528305 -0.67282346 0 0 Z " fill="#ECECEC" transform="translate(126,141)"/>
<path d="M0 0 C1.36125 0.37125 1.36125 0.37125 2.75 0.75 C2.75 1.74 2.75 2.73 2.75 3.75 C4.07 3.09 5.39 2.43 6.75 1.75 C6.42 2.74 6.09 3.73 5.75 4.75 C2.75 5.75 2.75 5.75 0.75 5.75 C0.42 6.08 0.09 6.41 -0.25 6.75 C-2.58297433 6.79092937 -4.91705225 6.79241723 -7.25 6.75 C-7.25 3.75 -7.25 3.75 -5.625 1.5 C-3.25 -0.25 -3.25 -0.25 0 0 Z " fill="#3B3B3B" transform="translate(167.25,135.25)"/>
<path d="M0 0 C1 3 1 3 -0.1875 5.9375 C-1.88069631 8.7984179 -3.53876547 10.79337594 -6 13 C-6.99 12.67 -7.98 12.34 -9 12 C-7.72210402 6.03648545 -4.66283606 3.51582826 0 0 Z " fill="#E3E3E3" transform="translate(166,143)"/>
<path d="M0 0 C0 0.66 0 1.32 0 2 C-0.86951294 2.07516846 -0.86951294 2.07516846 -1.7565918 2.15185547 C-4.40099577 2.38497534 -7.04418287 2.62987578 -9.6875 2.875 C-11.05551758 2.99294922 -11.05551758 2.99294922 -12.45117188 3.11328125 C-18.988958 3.61273469 -18.988958 3.61273469 -25 6 C-26.37967524 9.53514293 -26.37967524 9.53514293 -27 13 C-27.66 12.67 -28.32 12.34 -29 12 C-29.25 9.1875 -29.25 9.1875 -29 6 C-22.07277751 -0.49135231 -8.94643434 0 0 0 Z " fill="#494949" transform="translate(95,137)"/>
<path d="M0 0 C0.33 1.32 0.66 2.64 1 4 C-0.0725 4.7425 -1.145 5.485 -2.25 6.25 C-5.10884102 8.28540202 -7.60795785 10.41659448 -10 13 C-10.5 10.4375 -10.5 10.4375 -10 7 C-3.88023952 0 -3.88023952 0 0 0 Z " fill="#F5F5F5" transform="translate(197,139)"/>
<path d="M0 0 C1.98 0.99 1.98 0.99 4 2 C4.609375 4.90625 4.609375 4.90625 4.75 8.5 C4.80542969 9.75039062 4.86085938 11.00078125 4.91796875 12.2890625 C5.01905378 16.86195686 5.0948402 21.42659499 5 26 C4.67 26 4.34 26 4 26 C3.34 20.06 2.68 14.12 2 8 C1.34 8.66 0.68 9.32 0 10 C0 6.7 0 3.4 0 0 Z " fill="#F1F1F1" transform="translate(105,102)"/>
<path d="M0 0 C0.33 0 0.66 0 1 0 C1.2546343 3.76956869 1.47432236 7.5403777 1.6875 11.3125 C1.76033203 12.38435547 1.83316406 13.45621094 1.90820312 14.56054688 C1.96298828 15.58857422 2.01777344 16.61660156 2.07421875 17.67578125 C2.13182373 18.62364502 2.18942871 19.57150879 2.2487793 20.5480957 C2 23 2 23 0.49536133 24.83276367 C0.00189209 25.21795166 -0.49157715 25.60313965 -1 26 C-1.02886751 21.85418113 -1.04675327 17.70838784 -1.0625 13.5625 C-1.07087891 12.37849609 -1.07925781 11.19449219 -1.08789062 9.97460938 C-1.09111328 8.84990234 -1.09433594 7.72519531 -1.09765625 6.56640625 C-1.10289307 5.52427979 -1.10812988 4.48215332 -1.11352539 3.40844727 C-1 1 -1 1 0 0 Z " fill="#F8F8F8" transform="translate(183,124)"/>
<path d="M0 0 C0.99 0.33 1.98 0.66 3 1 C3 2.98 3 4.96 3 7 C3.99 7 4.98 7 6 7 C6 6.34 6 5.68 6 5 C5.34 5 4.68 5 4 5 C4.33 4.34 4.66 3.68 5 3 C5.99 3 6.98 3 8 3 C7.67 6.3 7.34 9.6 7 13 C5.68 12.67 4.36 12.34 3 12 C2.67 11.34 2.34 10.68 2 10 C1.34 10 0.68 10 0 10 C0.29296875 7.98177083 0.5859375 5.96354167 0.87890625 3.9453125 C1.1684297 1.91859333 1.1684297 1.91859333 0 0 Z " fill="#B9B9B9" transform="translate(206,165)"/>
<path d="M0 0 C0.33 0 0.66 0 1 0 C1 1.98 1 3.96 1 6 C3.64 6 6.28 6 9 6 C4.25 10.875 4.25 10.875 2 12 C1.34 11.67 0.68 11.34 0 11 C-0.144375 10.34 -0.28875 9.68 -0.4375 9 C-0.623125 8.34 -0.80875 7.68 -1 7 C-1.99 6.67 -2.98 6.34 -4 6 C-3.34 6 -2.68 6 -2 6 C-1.855625 5.195625 -1.71125 4.39125 -1.5625 3.5625 C-1 1 -1 1 0 0 Z " fill="#DEDEDE" transform="translate(156,136)"/>
<path d="M0 0 C1.98 0 3.96 0 6 0 C5.67 0.99 5.34 1.98 5 3 C6.65 2.67 8.3 2.34 10 2 C10 2.66 10 3.32 10 4 C9.01 4 8.02 4 7 4 C7 5.32 7 6.64 7 8 C1.125 7.125 1.125 7.125 0 6 C-0.04080783 4.00041636 -0.04254356 1.99954746 0 0 Z " fill="#444444" transform="translate(215,135)"/>
<path d="M0 0 C1.1875 2.0625 1.1875 2.0625 2 4 C0.35 3.67 -1.3 3.34 -3 3 C-4.98 5.31 -6.96 7.62 -9 10 C-9.99 9.67 -10.98 9.34 -12 9 C-10.80786603 4.36392345 -8.47097229 2.50173811 -4.75390625 -0.1796875 C-3 -1 -3 -1 0 0 Z " fill="#EDEDED" transform="translate(201,143)"/>
<path d="M0 0 C1.43908317 1.89353048 2.85378018 3.76252242 4.1015625 5.7890625 C6.19010558 9.06335908 7.27508759 10.72815785 11 12.125 C14.49709148 11.97928786 16.20839994 11.05264711 19 9 C19 9.99 19 10.98 19 12 C15.19593784 14.53604144 13.51491096 14.60198813 9 14 C3.54666354 10.85986159 0.98443832 6.83658329 -1 1 C-0.67 0.67 -0.34 0.34 0 0 Z " fill="#262626" transform="translate(68,149)"/>
<path d="M0 0 C0.33 0 0.66 0 1 0 C0.84694977 8.87691323 -2.84684234 15.37684116 -7 23 C-7.66 23 -8.32 23 -9 23 C-7.1431406 18.31486863 -5.1829188 13.67610386 -3.21875 9.03515625 C-2.02212105 6.05508992 -0.98380378 3.05616823 0 0 Z " fill="#212121" transform="translate(96,136)"/>
<path d="M0 0 C2 1 2 1 2.875 3.375 C3.05985808 8.73588433 1.03110005 13.10095181 -1 18 C-1.33 18 -1.66 18 -2 18 C-2.2361959 11.59646678 -1.823321 6.15370839 0 0 Z " fill="#919191" transform="translate(123,120)"/>
<path d="M0 0 C2.625 1.4375 2.625 1.4375 5 3 C4.01 6.3 3.02 9.6 2 13 C1.34 12.67 0.68 12.34 0 12 C-0.39460023 9.67624308 -0.72230092 7.3406065 -1 5 C-1.30903983 3.66082739 -1.62942911 2.32346746 -2 1 C-1.34 0.67 -0.68 0.34 0 0 Z " fill="#DBDBDB" transform="translate(171,140)"/>
<path d="M0 0 C0.33 0 0.66 0 1 0 C0.98259766 0.85271484 0.98259766 0.85271484 0.96484375 1.72265625 C0.90776806 6.60670484 1.18043228 11.18503965 2 16 C3.32 16 4.64 16 6 16 C5.67 16.99 5.34 17.98 5 19 C2.5625 18.625 2.5625 18.625 0 18 C-1.52491129 14.95017742 -1.14361434 11.77877461 -1.125 8.4375 C-1.12886719 7.73947266 -1.13273437 7.04144531 -1.13671875 6.32226562 C-1.12663994 1.12663994 -1.12663994 1.12663994 0 0 Z " fill="#0B0B0B" transform="translate(113,124)"/>
<path d="M0 0 C0.93423645 3.01031744 1.04449911 3.86650268 0 7 C-2.64 7 -5.28 7 -8 7 C-8 5.35 -8 3.7 -8 2 C-7.05125 2.04125 -6.1025 2.0825 -5.125 2.125 C-1.89755144 2.34973818 -1.89755144 2.34973818 0 0 Z " fill="#E3E3E3" transform="translate(139,139)"/>
<path d="M0 0 C0.33 0 0.66 0 1 0 C1 2.31 1 4.62 1 7 C1.66 7.33 2.32 7.66 3 8 C-1.66666667 8 -6.33333333 8 -11 8 C-10 6 -10 6 -7 5 C-5.79117904 2.99983534 -5.79117904 2.99983534 -5 1 C-4.67 1 -4.34 1 -4 1 C-4 2.65 -4 4.3 -4 6 C-1.2160817 4.60804085 -1.02101003 2.84424221 0 0 Z " fill="#2E2E2E" transform="translate(133,134)"/>
<path d="M0 0 C0.99 0.33 1.98 0.66 3 1 C1.56542672 1.9834496 0.12722594 2.96160921 -1.3125 3.9375 C-2.11300781 4.48277344 -2.91351563 5.02804688 -3.73828125 5.58984375 C-7.31839376 7.82200371 -10.06078285 8.11609373 -14.1875 8.0625 C-15.53908203 8.04896484 -15.53908203 8.04896484 -16.91796875 8.03515625 C-17.60503906 8.02355469 -18.29210937 8.01195312 -19 8 C-19 7.67 -19 7.34 -19 7 C-18.13117188 6.82984375 -17.26234375 6.6596875 -16.3671875 6.484375 C-9.95710879 5.13639424 -5.25067214 3.86891631 0 0 Z " fill="#383838" transform="translate(93,165)"/>
<path d="M0 0 C0.33 0 0.66 0 1 0 C1.33 2.97 1.66 5.94 2 9 C0.68 9.33 -0.64 9.66 -2 10 C-3 9 -3 9 -3.0625 5.9375 C-3.041875 4.968125 -3.02125 3.99875 -3 3 C-2.01 2.67 -1.02 2.34 0 2 C0 1.34 0 0.68 0 0 Z " fill="#E3E3E3" transform="translate(117,131)"/>
<path d="M0 0 C0.33 0.66 0.66 1.32 1 2 C-0.11678083 3.6721852 -1.24366352 5.33762803 -2.375 7 C-3.00148437 7.928125 -3.62796875 8.85625 -4.2734375 9.8125 C-4.84320313 10.534375 -5.41296875 11.25625 -6 12 C-6.66 12 -7.32 12 -8 12 C-8 9.03 -8 6.06 -8 3 C-7.67 3 -7.34 3 -7 3 C-7 4.65 -7 6.3 -7 8 C-4.24282298 6.62141149 -3.53678254 4.62533685 -2 2 C-1.34 1.34 -0.68 0.68 0 0 Z " fill="#272727" transform="translate(187,144)"/>
<path d="M0 0 C2.01822917 0.06510417 4.03645833 0.13020833 6.0546875 0.1953125 C6.0546875 1.5153125 6.0546875 2.8353125 6.0546875 4.1953125 C5.0646875 4.1953125 4.0746875 4.1953125 3.0546875 4.1953125 C3.7146875 3.2053125 4.3746875 2.2153125 5.0546875 1.1953125 C3.4046875 1.5253125 1.7546875 1.8553125 0.0546875 2.1953125 C-0.2753125 6.4853125 -0.6053125 10.7753125 -0.9453125 15.1953125 C-1.2753125 15.1953125 -1.6053125 15.1953125 -1.9453125 15.1953125 C-1.9453125 11.2353125 -1.9453125 7.2753125 -1.9453125 3.1953125 C-2.6053125 2.8653125 -3.2653125 2.5353125 -3.9453125 2.1953125 C-1.9453125 0.1953125 -1.9453125 0.1953125 0 0 Z " fill="#7D7D7D" transform="translate(200.9453125,154.8046875)"/>
<path d="M0 0 C1.125 1.5 1.125 1.5 2 4 C1.57598348 6.7773082 0.81108065 9.29639783 0 12 C-0.33 12 -0.66 12 -1 12 C-1.33 10.35 -1.66 8.7 -2 7 C-4.97 9.475 -4.97 9.475 -8 12 C-8.66 11.67 -9.32 11.34 -10 11 C-8.87720538 10.01830524 -7.75168527 9.03972702 -6.625 8.0625 C-5.99851563 7.51722656 -5.37203125 6.97195312 -4.7265625 6.41015625 C-3 5 -3 5 -1 4 C-0.34786708 1.97536745 -0.34786708 1.97536745 0 0 Z " fill="#151515" transform="translate(168,137)"/>
<path d="M0 0 C1.2065625 0.0309375 1.2065625 0.0309375 2.4375 0.0625 C1.9734375 1.2071875 1.9734375 1.2071875 1.5 2.375 C0.75856407 4.25039677 0.07521783 6.14934652 -0.5625 8.0625 C-1.5525 8.0625 -2.5425 8.0625 -3.5625 8.0625 C-3.60491723 5.72955225 -3.60342937 3.39547433 -3.5625 1.0625 C-2.5625 0.0625 -2.5625 0.0625 0 0 Z " fill="#E8E8E8" transform="translate(203.5625,155.9375)"/>
<path d="M0 0 C0.66 0 1.32 0 2 0 C2 0.66 2 1.32 2 2 C3.32 2.33 4.64 2.66 6 3 C1.65885463 5.39511469 -1.23727328 5.02977875 -6 4 C-6 3.34 -6 2.68 -6 2 C-3.525 2.495 -3.525 2.495 -1 3 C-0.67 2.01 -0.34 1.02 0 0 Z " fill="#EEEEEE" transform="translate(216,142)"/>
<path d="M0 0 C1.65 0 3.3 0 5 0 C5.33 1.32 5.66 2.64 6 4 C5.071875 4.309375 5.071875 4.309375 4.125 4.625 C1.15346355 6.54775888 0.86975341 8.66594527 0 12 C-1.47806867 8.15702145 -0.3101318 5.76662891 1 2 C0.67 1.34 0.34 0.68 0 0 Z " fill="#ECECEC" transform="translate(101,139)"/>
<path d="M0 0 C0.33 0.99 0.66 1.98 1 3 C1.66 3 2.32 3 3 3 C3.33 2.34 3.66 1.68 4 1 C3.67 2.32 3.34 3.64 3 5 C1.35 5.33 -0.3 5.66 -2 6 C-2 5.34 -2 4.68 -2 4 C-3.98 4 -5.96 4 -8 4 C-8 3.67 -8 3.34 -8 3 C-6.865625 2.690625 -5.73125 2.38125 -4.5625 2.0625 C-1.21224901 1.37075469 -1.21224901 1.37075469 0 0 Z " fill="#DADADA" transform="translate(207,139)"/>
<path d="M0 0 C0.33 0 0.66 0 1 0 C1 1.65 1 3.3 1 5 C3.2236068 3.0745356 3.2236068 3.0745356 4 0 C4.66 0 5.32 0 6 0 C6 0.66 6 1.32 6 2 C6.66 2 7.32 2 8 2 C8 3.65 8 5.3 8 7 C7.34 6.01 6.68 5.02 6 4 C4.68 4.99 3.36 5.98 2 7 C1.34 6.67 0.68 6.34 0 6 C0 4.02 0 2.04 0 0 Z " fill="#676767" transform="translate(134,135)"/>
<path d="M0 0 C0.99 0 1.98 0 3 0 C3.66 2.97 4.32 5.94 5 9 C4.01 9.495 4.01 9.495 3 10 C-0.22265625 4.82421875 -0.22265625 4.82421875 -1 3 C-0.67 2.01 -0.34 1.02 0 0 Z " fill="#E2E2E2" transform="translate(70,148)"/>
<path d="M0 0 C0.34833144 4.87664009 -0.58314288 7.77050005 -3 12 C-3.33 12 -3.66 12 -4 12 C-4.368 4.64 -4.368 4.64 -2.5625 1.5 C-1 0 -1 0 0 0 Z " fill="#D9D9D9" transform="translate(108,109)"/>
<path d="M0 0 C2.10827055 3.16240582 2.33817465 4.50657469 2.625 8.1875 C2.69976562 9.08855469 2.77453125 9.98960938 2.8515625 10.91796875 C2.90054688 11.60503906 2.94953125 12.29210937 3 13 C2.01 13.495 2.01 13.495 1 14 C0.06380187 10.84493858 -0.1057123 8.03413498 -0.0625 4.75 C-0.05347656 3.85796875 -0.04445313 2.9659375 -0.03515625 2.046875 C-0.02355469 1.37140625 -0.01195313 0.6959375 0 0 Z " fill="#2A2A2A" transform="translate(103,118)"/>
<path d="M0 0 C0.66 0 1.32 0 2 0 C2.16682272 4.92127034 2.24828052 8.50343896 0 13 C-0.33 13 -0.66 13 -1 13 C-0.67 8.71 -0.34 4.42 0 0 Z " fill="#E3E3E3" transform="translate(115,118)"/>
<path d="M0 0 C0.99 0.33 1.98 0.66 3 1 C3 2.32 3 3.64 3 5 C0.69 5 -1.62 5 -4 5 C-4 4.01 -4 3.02 -4 2 C-3.67 2.66 -3.34 3.32 -3 4 C-2.34 4 -1.68 4 -1 4 C-0.67 2.68 -0.34 1.36 0 0 Z " fill="#8A8A8A" transform="translate(164,137)"/>
<path d="M0 0 C0.33 0 0.66 0 1 0 C1.13277344 0.61488281 1.26554687 1.22976562 1.40234375 1.86328125 C1.57894531 2.67152344 1.75554687 3.47976562 1.9375 4.3125 C2.19853516 5.51326172 2.19853516 5.51326172 2.46484375 6.73828125 C2.99886159 9.145401 2.99886159 9.145401 4 12 C3.01 12.33 2.02 12.66 1 13 C-0.6290678 8.20862412 -1.20577428 4.94367454 0 0 Z " fill="#ECECEC" transform="translate(113,143)"/>
<path d="M0 0 C0.33 2.64 0.66 5.28 1 8 C0.01 8 -0.98 8 -2 8 C-2.33 6.35 -2.66 4.7 -3 3 C-3.99 3 -4.98 3 -6 3 C-4.46624489 -0.06751022 -3.38927784 0 0 0 Z " fill="#3B3B3B" transform="translate(159,134)"/>
<path d="M0 0 C2.97 0 5.94 0 9 0 C9 0.33 9 0.66 9 1 C7.35 1 5.7 1 4 1 C3.34 2.32 2.68 3.64 2 5 C1.01 5 0.02 5 -1 5 C-0.67 3.35 -0.34 1.7 0 0 Z " fill="#DADADA" transform="translate(97,138)"/>
<path d="M0 0 C-1.2125738 3.72433382 -2.50859979 7.37802806 -4 11 C-4.33 11 -4.66 11 -5 11 C-5.36637589 4.64948454 -5.36637589 4.64948454 -3.625 1.5625 C-2 0 -2 0 0 0 Z " fill="#1B1B1B" transform="translate(57,132)"/>
<path d="M0 0 C0.99 0.33 1.98 0.66 3 1 C3.1875 3.8125 3.1875 3.8125 3 7 C2.01 7.99 1.02 8.98 0 10 C0 6.7 0 3.4 0 0 Z " fill="#E9E9E9" transform="translate(105,102)"/>
<path d="M0 0 C0.99 0.33 1.98 0.66 3 1 C3 1.66 3 2.32 3 3 C3.66 3 4.32 3 5 3 C5 4.98 5 6.96 5 9 C4.01 9 3.02 9 2 9 C2.33 8.01 2.66 7.02 3 6 C2.34 5.34 1.68 4.68 1 4 C0.375 1.875 0.375 1.875 0 0 Z " fill="#ECECEC" transform="translate(222,139)"/>
<path d="M0 0 C1.32 0 2.64 0 4 0 C3.67 3.3 3.34 6.6 3 10 C2.01 10 1.02 10 0 10 C0.66666667 7.33333333 1.33333333 4.66666667 2 2 C1.34 2 0.68 2 0 2 C0 1.34 0 0.68 0 0 Z " fill="#6C6C6C" transform="translate(210,168)"/>
<path d="M0 0 C0 0.66 0 1.32 0 2 C-1.95890881 3.39300182 -3.9639118 4.72245446 -6 6 C-6.99 6.66 -7.98 7.32 -9 8 C-9 7.01 -9 6.02 -9 5 C-7.5390625 3.61328125 -7.5390625 3.61328125 -5.625 2.3125 C-4.68527344 1.65701172 -4.68527344 1.65701172 -3.7265625 0.98828125 C-2 0 -2 0 0 0 Z " fill="#3A3A3A" transform="translate(197,137)"/>
<path d="M0 0 C0.33 0 0.66 0 1 0 C1.33 1.65 1.66 3.3 2 5 C3.32 5 4.64 5 6 5 C5.67 5.99 5.34 6.98 5 8 C3.35 7.67 1.7 7.34 0 7 C-0.93423645 3.98968256 -1.04449911 3.13349732 0 0 Z " fill="#3D3D3D" transform="translate(113,135)"/>
<path d="M0 0 C0.66 0.66 1.32 1.32 2 2 C-0.71182212 4.60334924 -1.89133813 4.99456691 -5.75 5.1875 C-6.8225 5.125625 -7.895 5.06375 -9 5 C-8.67 4.34 -8.34 3.68 -8 3 C-6.00116131 2.65977214 -4.00109278 2.32670903 -2 2 C-1.34 1.34 -0.68 0.68 0 0 Z " fill="#464646" transform="translate(86,158)"/>
<path d="M0 0 C0.99 0 1.98 0 3 0 C2.67 2.64 2.34 5.28 2 8 C1.01 8 0.02 8 -1 8 C-0.7525 7.13375 -0.7525 7.13375 -0.5 6.25 C0.14462031 3.73335631 0.14462031 3.73335631 0 0 Z " fill="#CCCCCC" transform="translate(110,144)"/>
<path d="M0 0 C0.66 0 1.32 0 2 0 C1.67 2.64 1.34 5.28 1 8 C0.34 8 -0.32 8 -1 8 C-1.625 5.6875 -1.625 5.6875 -2 3 C-1.34 2.01 -0.68 1.02 0 0 Z " fill="#3A3A3A" transform="translate(157,149)"/>
<path d="M0 0 C0.33 1.32 0.66 2.64 1 4 C-0.65 4.33 -2.3 4.66 -4 5 C-3.6875 3.0625 -3.6875 3.0625 -3 1 C-2.01 0.67 -1.02 0.34 0 0 Z " fill="#EEEEEE" transform="translate(155,142)"/>
<path d="M0 0 C0.99 0 1.98 0 3 0 C3.33 1.98 3.66 3.96 4 6 C2.68 6 1.36 6 0 6 C0 4.02 0 2.04 0 0 Z " fill="#868686" transform="translate(215,135)"/>
<path d="M0 0 C0.33 0 0.66 0 1 0 C1 1.98 1 3.96 1 6 C-0.65 6.33 -2.3 6.66 -4 7 C-3.34 6.67 -2.68 6.34 -2 6 C-1.62690101 4.34178227 -1.29299023 2.67422986 -1 1 C-0.67 0.67 -0.34 0.34 0 0 Z " fill="#D4D4D4" transform="translate(156,136)"/>
<path d="M0 0 C0.33 0 0.66 0 1 0 C1.33 4.29 1.66 8.58 2 13 C1.01 12.67 0.02 12.34 -1 12 C-0.67 8.04 -0.34 4.08 0 0 Z " fill="#121212" transform="translate(120,128)"/>
</svg>
